<?xml version="1.0" encoding="UTF-8"?>
<svg id="Capa_1" data-name="Capa 1" xmlns="http://www.w3.org/2000/svg" version="1.1" viewBox="0 0 512 512">
  <defs>
    <style>
      .cls-1 {
        fill: #fff;
        stroke-width: 0px;
      }
    </style>
  </defs>
  <path class="cls-1" d="M289.5,194.3c-3.4,0-6.5-2.4-7.3-5.8-1.9-8.5-2.9-17.2-2.9-25.9,0-29.2,10.8-57.1,30.5-78.5,19.5-21.4,46.1-34.6,74.8-37.3,4.1-.4,7.8,2.6,8.2,6.8s-2.6,7.8-6.8,8.2c-25,2.4-48.1,13.9-65.2,32.5-17.1,18.7-26.6,43-26.6,68.4s.9,15.2,2.5,22.6c.9,4-1.6,8.1-5.6,9-.6.1-1.1.2-1.7.2Z"/>
  <path class="cls-1" d="M395.6,278.9c-1,0-1.9,0-2.8,0-4.1-.1-7.4-3.6-7.2-7.8.1-4.1,3.6-7.3,7.8-7.2.8,0,1.5,0,2.3,0,55.9,0,101.4-45.5,101.4-101.4s-33.9-89.5-80.6-99.2c-4.1-.8-6.7-4.8-5.8-8.9.8-4.1,4.8-6.7,8.9-5.8,25.8,5.4,49.2,19.6,66.1,40,17.1,20.7,26.4,47,26.4,73.9,0,64.2-52.2,116.4-116.4,116.4Z"/>
  <path class="cls-1" d="M395.6,247.7c-5.9,0-11.8-.6-17.6-1.8-4.1-.9-6.6-4.8-5.8-8.9.9-4.1,4.8-6.6,8.9-5.8,4.7,1,9.6,1.5,14.5,1.5,38.7,0,70.2-31.5,70.2-70.2s-31.5-70.2-70.2-70.2-70.2,31.5-70.2,70.2,1.9,19.1,5.8,27.9c1.6,3.8,0,8.2-3.9,9.9-3.8,1.6-8.2,0-9.9-3.9-4.6-10.7-7-22.1-7-33.8,0-47,38.2-85.2,85.2-85.2s85.2,38.2,85.2,85.2-38.2,85.2-85.2,85.2Z"/>
  <g>
    <path class="cls-1" d="M414.1,207h-36.6c-4.1,0-7.5-3.4-7.5-7.5s3.4-7.5,7.5-7.5,4.4-2,4.4-4.4v-50.2c0-10.7,8.7-19.4,19.4-19.4h12.8c4.1,0,7.5,3.4,7.5,7.5s-3.4,7.5-7.5,7.5h-12.8c-2.4,0-4.4,2-4.4,4.4v50.2c0,1.5-.2,3-.5,4.4h17.7c4.1,0,7.5,3.4,7.5,7.5s-3.4,7.5-7.5,7.5Z"/>
    <path class="cls-1" d="M414.1,170h-37c-4.1,0-7.5-3.4-7.5-7.5s3.4-7.5,7.5-7.5h37c4.1,0,7.5,3.4,7.5,7.5s-3.4,7.5-7.5,7.5Z"/>
  </g>
  <path class="cls-1" d="M143.7,247.8c-64.2,0-116.4-52.2-116.4-116.4s10.1-55.2,28.5-76.3c18.2-20.9,43.3-34.7,70.6-38.8,4.1-.6,7.9,2.2,8.5,6.3.6,4.1-2.2,7.9-6.3,8.5-23.8,3.5-45.6,15.5-61.5,33.8-16,18.4-24.8,42-24.8,66.5,0,55.9,45.5,101.4,101.4,101.4s101.4-45.5,101.4-101.4-8.8-48-24.7-66.4c-15.8-18.2-37.6-30.2-61.3-33.9-4.1-.6-6.9-4.4-6.3-8.5.6-4.1,4.4-6.9,8.5-6.3,27.2,4.1,52.2,17.9,70.3,38.9,18.3,21.1,28.4,48.2,28.4,76.2,0,64.2-52.2,116.4-116.4,116.4Z"/>
  <path class="cls-1" d="M143.8,216.5c-47,0-85.2-38.2-85.2-85.2s38.2-85.2,85.2-85.2,85.2,38.2,85.2,85.2-38.2,85.2-85.2,85.2ZM143.8,61.2c-38.7,0-70.2,31.5-70.2,70.2s31.5,70.2,70.2,70.2,70.2-31.5,70.2-70.2-31.5-70.2-70.2-70.2Z"/>
  <g>
    <path class="cls-1" d="M153.8,123.2h-41.1c-4.1,0-7.5-3.4-7.5-7.5s3.4-7.5,7.5-7.5h41.1c4.1,0,7.5,3.4,7.5,7.5s-3.4,7.5-7.5,7.5Z"/>
    <path class="cls-1" d="M153.8,154.3h-41.1c-4.1,0-7.5-3.4-7.5-7.5s3.4-7.5,7.5-7.5h41.1c4.1,0,7.5,3.4,7.5,7.5s-3.4,7.5-7.5,7.5Z"/>
    <path class="cls-1" d="M151.7,185.6h-.1c-16.9,0-30.7-13.8-30.7-30.7v-47c0-16.9,13.8-30.7,30.7-30.7s30.7,13.8,30.7,30.7-3.4,7.5-7.5,7.5-7.5-3.4-7.5-7.5c0-8.7-7.1-15.7-15.7-15.7s-15.7,7.1-15.7,15.7v47c0,8.7,7.1,15.7,15.7,15.7h.1c8.7,0,15.7-7.1,15.7-15.7s3.4-7.5,7.5-7.5,7.5,3.4,7.5,7.5c0,16.9-13.8,30.7-30.7,30.7Z"/>
  </g>
  <path class="cls-1" d="M373.5,369c-1.6,0-3.2-.5-4.5-1.5-3.3-2.5-3.9-7.2-1.4-10.5,13.5-17.8,20.7-39,20.7-61.4,0-55.9-45.5-101.4-101.4-101.4s-101.4,45.5-101.4,101.4,1.6,21,4.8,31c1.3,3.9-.9,8.2-4.8,9.4-3.9,1.3-8.2-.9-9.4-4.8-3.7-11.5-5.6-23.4-5.6-35.6,0-64.2,52.2-116.4,116.4-116.4s116.4,52.2,116.4,116.4-8.2,50.1-23.8,70.5c-1.5,1.9-3.7,3-6,3Z"/>
  <g>
    <path class="cls-1" d="M291,335.2h-9.6c-9.6,0-17.9-6.2-20.6-15.3-1.2-4,1.1-8.1,5-9.3,4-1.2,8.1,1.1,9.3,5,.8,2.8,3.4,4.7,6.3,4.7h9.6c4.4,0,8-3.6,8-8s-3.6-8-8-8h-8.5c-12.7,0-23-10.3-23-23s10.3-23,23-23h7.6c9.6,0,17.9,6.2,20.6,15.3,1.2,4-1.1,8.1-5,9.3-4,1.2-8.1-1.1-9.3-5-.8-2.8-3.4-4.7-6.3-4.7h-7.6c-4.4,0-8,3.6-8,8s3.6,8,8,8h8.5c12.7,0,23,10.3,23,23s-10.3,23-23,23Z"/>
    <path class="cls-1" d="M286.8,273.1c-4.1,0-7.5-3.4-7.5-7.5v-16.4c0-4.1,3.4-7.5,7.5-7.5s7.5,3.4,7.5,7.5v16.4c0,4.1-3.4,7.5-7.5,7.5Z"/>
    <path class="cls-1" d="M286.8,351.6c-4.1,0-7.5-3.4-7.5-7.5v-16.4c0-4.1,3.4-7.5,7.5-7.5s7.5,3.4,7.5,7.5v16.4c0,4.1-3.4,7.5-7.5,7.5Z"/>
  </g>
  <path class="cls-1" d="M332.5,365.9c-2.3,0-4.6-1.1-6.1-3.1-2.4-3.3-1.7-8,1.6-10.5,18-13.2,28.8-34.3,28.8-56.7,0-38.7-31.5-70.2-70.2-70.2s-70.2,31.5-70.2,70.2,7.3,36.4,20.6,49.6c2.9,2.9,2.9,7.7,0,10.6-2.9,2.9-7.7,2.9-10.6,0-16.1-16.1-25-37.5-25-60.3,0-47,38.2-85.2,85.2-85.2s85.2,38.2,85.2,85.2-13.1,52.8-35,68.8c-1.3,1-2.9,1.4-4.4,1.4Z"/>
  <path class="cls-1" d="M312.7,417.6h-96.5c-4.1,0-7.5-3.4-7.5-7.5s3.4-7.5,7.5-7.5h96.5c9.2,0,18.5-7,21.2-16,1.2-4,5.3-6.2,9.3-5.1,4,1.2,6.2,5.3,5.1,9.3-4.5,15.2-19.8,26.7-35.6,26.7Z"/>
  <path class="cls-1" d="M301.7,495.7h-44.9c-4.1,0-7.5-3.4-7.5-7.5s3.4-7.5,7.5-7.5h44.9c10.4,0,20.5-3.8,28.4-10.7l128.6-112.6c8.5-7.5,9.7-21.7,2.5-30.5-3.8-4.6-9.1-7.4-14.9-8-5.9-.5-11.6,1.2-16.2,5l-84.1,70.4c-2.5,2.1-6.2,2.3-8.9.5-2.8-1.8-4-5.2-3.1-8.4.6-2,.9-4.1.9-6.2,0-12.2-9.9-22.1-22.1-22.1h-76.4c-14.4,0-28.4-4.6-39.4-13-12.5-9.5-27.5-14.6-43.3-14.6s-40.7,9.1-54.3,25c-1.4,1.7-3.5,2.6-5.7,2.6h-32v101.3h32c.7,0,1.5.1,2.2.3l56.2,16.9c8.8,2.6,17.9,4,27.1,4h45c4.1,0,7.5,3.4,7.5,7.5s-3.4,7.5-7.5,7.5h-45c-10.7,0-21.3-1.6-31.5-4.6l-55.1-16.6h-38.4c-4.1,0-7.5-3.4-7.5-7.5v-116.3c0-4.1,3.4-7.5,7.5-7.5h36.2c16.4-17.6,39.3-27.6,63.4-27.6s37.2,6.1,52.3,17.6c8.5,6.4,19.2,10,30.4,10h76.4c17.7,0,32.5,12.5,36.2,29.1l71.5-59.8c7.6-6.4,17.3-9.4,27.2-8.5s18.8,5.7,25.1,13.4c12.3,15,10.4,38.5-4.2,51.2l-128.6,112.6c-10.6,9.3-24.2,14.4-38.2,14.4Z"/>
  <path class="cls-1" d="M54.1,495.7H7.5c-4.1,0-7.5-3.4-7.5-7.5v-155.3c0-4.1,3.4-7.5,7.5-7.5h46.6c4.1,0,7.5,3.4,7.5,7.5v155.3c0,4.1-3.4,7.5-7.5,7.5ZM15,480.7h31.6v-140.3H15v140.3Z"/>
</svg>