<svg fill="white" id="Layer_1" height="512" viewBox="0 0 66 66" width="512" xmlns="http://www.w3.org/2000/svg"><g><path d="m22 34.5c2.9 0 5.2-2.4 5.2-5.2 0-2.9-2.4-5.2-5.2-5.2-2.9 0-5.2 2.4-5.2 5.2s2.3 5.2 5.2 5.2zm0-8.5c1.8 0 3.2 1.5 3.2 3.2s-1.5 3.2-3.2 3.2c-1.8 0-3.2-1.5-3.2-3.2s1.4-3.2 3.2-3.2z"/><path d="m64 51.5h-4v-28.8c0-4.1-3.3-7.4-7.4-7.4h-.3v-10c0-.6-.4-1-1-1h-25c-.6 0-1 .4-1 1v9.9h-11.9c-4.1 0-7.4 3.3-7.4 7.4v28.8h-4c-.6 0-1 .4-1 1v3.7c0 .3.1.6.4.8l5.6 4.6c.2.1.4.2.6.2h50.8c.3 0 .5-.1.7-.3 2.1-2.1 3.4-2.3 5.6-4.6.2-.2.3-.4.3-.7v-3.7c0-.5-.4-.9-1-.9zm-36.8-45.2h23v9.9 3.1h-3.7c-.2 0-.5.1-.7.3l-4 3.6v-2.9c0-.6-.4-1-1-1h-13.6v-3.1zm-19.2 16.4c0-3 2.4-5.4 5.4-5.4h11.8v3.1c0 .6.4 1 1 1h13.7v4.1c0 .4.2.8.6.9.4.2.8.1 1.1-.2l5.4-4.9h4.3c.6 0 1-.4 1-1v-3.1h.3c3 0 5.4 2.4 5.4 5.4v28.8h-16.4c-.3 0-.5.1-.7.3l-.2.3s0 0-.1.1l-.1.1c-.8.8-1.5 1.6-2.5 2.5h-10l-2.9-2.9c-.2-.2-.4-.3-.7-.3h-16.4zm55 33c-1.8 1.7-3.1 2.1-5 4h-50l-5-4.1v-2.2h21l2.9 2.9c.2.2.4.3.7.3h10.8c.3 0 .5-.1.7-.3 2-2 2.7-2.7 2.9-2.9h21z"/><path d="m32.5 46.3v-6.3c0-2.4-1.9-4.3-4.3-4.3h-12.3c-2.4 0-4.3 1.9-4.3 4.3v6.3c0 .6.4 1 1 1h18.9c.5 0 1-.4 1-1zm-2-1h-16.9v-5.3c0-1.3 1-2.3 2.3-2.3h12.2c1.3 0 2.3 1 2.3 2.3v5.3z"/><path d="m38.5 46.4h14.9c.6 0 1-.4 1-1s-.4-1-1-1h-14.9c-.6 0-1 .4-1 1 0 .5.4 1 1 1z"/><path d="m38.5 41h14.9c.6 0 1-.4 1-1s-.4-1-1-1h-14.9c-.6 0-1 .4-1 1 0 .5.4 1 1 1z"/><path d="m38.5 35.6h14.9c.6 0 1-.4 1-1s-.4-1-1-1h-14.9c-.6 0-1 .4-1 1 0 .5.4 1 1 1z"/><path d="m30.7 10.9h16c.6 0 1-.4 1-1s-.4-1-1-1h-16c-.6 0-1 .4-1 1 0 .5.5 1 1 1z"/><path d="m30.7 15.9h2.3c.6 0 1-.4 1-1s-.4-1-1-1h-2.3c-.6 0-1 .4-1 1 0 .5.5 1 1 1z"/><path d="m39.9 13.9h-2.3c-.6 0-1 .4-1 1s.4 1 1 1h2.3c.6 0 1-.4 1-1s-.5-1-1-1z"/><path d="m46.7 13.9h-2.3c-.6 0-1 .4-1 1s.4 1 1 1h2.3c.6 0 1-.4 1-1s-.4-1-1-1z"/></g></svg>