<svg fill="white" id="Layer_3" height="512" viewBox="0 0 64 64" width="512" xmlns="http://www.w3.org/2000/svg" data-name="Layer 3"><path d="m60 45a3 3 0 0 0 3-3v-38a3 3 0 0 0 -3-3h-56a3 3 0 0 0 -3 3v38a3 3 0 0 0 3 3h17.6a17.076 17.076 0 0 0 8.176 6.805l-3.19 3.195h-3.586v-3a3 3 0 0 0 -3-3h-12a3 3 0 0 0 -3 3v8a3 3 0 0 0 3 3h12a3 3 0 0 0 3-3v-3h4a1 1 0 0 0 .707-.293l4.221-4.221a16.713 16.713 0 0 0 13.061-2.086l2.6 2.6-.293.293a1 1 0 0 0 0 1.414l6.757 6.757a5.242 5.242 0 1 0 7.414-7.414l-6.757-6.757a1 1 0 0 0 -1.414 0l-.296.293-2.586-2.586zm-39 15a1 1 0 0 1 -1 1h-12a1 1 0 0 1 -1-1v-8a1 1 0 0 1 1-1h12a1 1 0 0 1 1 1zm-17-17a1 1 0 0 1 -1-1v-38a1 1 0 0 1 1-1h56a1 1 0 0 1 1 1v38a1 1 0 0 1 -1 1h-8.526a16.937 16.937 0 0 0 -8.549-22.511l5.075-5.075v2.586h2v-5a1 1 0 0 0 -1-1h-5v2h2.586l-5.719 5.719a16.912 16.912 0 0 0 -4.295-.69l-4.724-7.559a1 1 0 0 0 -.848-.47h-4v-3a3 3 0 0 0 -3-3h-12a3 3 0 0 0 -3 3v8a3 3 0 0 0 3 3h12a3 3 0 0 0 3-3v-3h3.446l3.806 6.09a16.971 16.971 0 0 0 -11.107 5.818l-1.4-1.573a1 1 0 0 0 -.74-.335h-.005a1 1 0 0 0 -.737.324l-11 12 1.474 1.352 10.252-11.184.909 1.024a16.777 16.777 0 0 0 -2.617 12.484h-12.281v-27h-2v28a1 1 0 0 0 1 1h13.753a16.7 16.7 0 0 0 .773 2zm21-35v8a1 1 0 0 1 -1 1h-12a1 1 0 0 1 -1-1v-8a1 1 0 0 1 1-1h12a1 1 0 0 1 1 1zm-4 28a15 15 0 1 1 15 15 15.017 15.017 0 0 1 -15-15zm39.05 19.464a3.243 3.243 0 1 1 -4.586 4.586l-6.05-6.05 4.586-4.586zm-11.05-3.878-2.353-2.353a17.089 17.089 0 0 0 2.586-2.586l2.353 2.353z"/><path d="m36 23a13 13 0 1 0 13 13 13.015 13.015 0 0 0 -13-13zm-.436 2.022-6.521 6.521-1.86-2.092a10.976 10.976 0 0 1 8.381-4.429zm.436 21.978a11 11 0 0 1 -9.786-6h11.786v-2h-12.574a10.83 10.83 0 0 1 .672-7.759l2.154 2.424a1 1 0 0 0 .719.335h.029a1 1 0 0 0 .707-.293l8.486-8.486a11 11 0 0 1 -2.193 21.779z"/><path d="m13 9h10v2h-10z"/><path d="m13 13h10v2h-10z"/><path d="m9 53h10v2h-10z"/><path d="m9 57h10v2h-10z"/></svg>