<svg fill="white" clip-rule="evenodd" fill-rule="evenodd" height="512" image-rendering="optimizeQuality" shape-rendering="geometricPrecision" text-rendering="geometricPrecision" viewBox="0 0 512 512" width="512" xmlns="http://www.w3.org/2000/svg"><g id="Layer_x0020_1"><g id="_468881960"><g><g><g><path d="m348 296h-275c-4 0-7-3-7-7 0-12-11-23-23-23-4 0-7-3-7-7v-107c0-4 3-7 7-7 12 0 23-11 23-23 0-4 3-7 7-7h275c4 0 7 3 7 7 0 12 10 23 23 23 4 0 7 3 7 7v107c0 4-3 7-7 7-13 0-23 10-23 23 0 4-3 7-7 7zm-269-14h263c3-15 14-27 29-30v-94c-15-3-27-14-29-29h-263c-3 14-15 26-29 29v95c14 2 26 14 29 29z"/></g><g><path d="m210 278c-40 0-72-33-72-72 0-41 32-73 72-73 19 0 38 7 51 21 14 14 22 33 22 52 0 39-33 72-73 72zm0-131c-32 0-58 26-58 59 0 32 26 58 58 58 33 0 59-26 59-58s-27-59-59-59z"/></g><g><path d="m210 245c-12 0-23-11-23-23 0-4 3-7 7-7s7 3 7 7c0 5 5 9 9 9 5 0 9-4 9-9s-4-9-9-9c-12 0-23-11-23-23 0-13 11-23 23-23 13 0 23 10 23 23 0 4-3 7-7 7s-7-3-7-7c0-5-4-9-9-9-4 0-9 4-9 9 0 4 5 9 9 9 13 0 23 10 23 23s-10 23-23 23z"/></g><g><path d="m210 181c-4 0-7-3-7-7v-15c0-4 3-7 7-7s7 3 7 7v15c0 4-3 7-7 7z"/></g><g><path d="m210 260c-4 0-7-3-7-7v-15c0-4 3-7 7-7s7 3 7 7v15c0 4-3 7-7 7z"/></g></g><g><path d="m362 325h-355c-4 0-7-3-7-7v-225c0-4 3-7 7-7h407c4 0 7 3 7 7v191c0 4-3 7-7 7s-7-3-7-7v-184h-393v211h348c4 0 7 3 7 7s-3 7-7 7z"/></g><g><path d="m438 290c-4 0-7-3-7-7v-207h-392v17c0 4-3 7-7 7s-7-3-7-7v-24c0-4 3-7 7-7h406c4 0 7 3 7 7v214c0 4-3 7-7 7z"/></g><g><path d="m434 450c-20 0-38-1-51-4-12-3-28-7-28-19v-128c0-5 3-12 17-16 32-11 113-10 133 4 6 4 7 9 7 12v128c0 12-16 17-28 19-13 3-31 4-50 4zm-65-24c3 4 24 10 65 10 40 0 61-6 64-10v-16c-4 1-9 3-14 3-13 3-31 5-50 5-20 0-38-2-51-5-5 0-10-2-14-3zm0-32c3 3 25 9 65 9 39 0 61-6 64-9v-16c-4 1-9 3-14 3-13 3-31 5-50 5-20 0-38-2-51-5-5 0-10-2-14-3zm0-32c3 3 25 9 65 9 39 0 61-6 64-9v-16c-4 1-9 3-14 3-13 3-31 5-50 5-20 0-38-2-51-5-5 0-10-2-14-3zm0-32c3 3 25 9 65 9 39 0 61-6 64-9v-16c-4 1-9 3-14 3-13 3-31 5-50 5-20 0-38-2-51-5-5 0-10-2-14-3zm1-31c6 3 27 8 64 8s58-5 63-8c-4-3-19-8-50-9-28-1-56 1-71 6-3 1-5 2-6 3z"/></g><g><path d="m262 450c-20 0-38-2-51-5-12-2-28-6-28-18v-64c0-5 3-12 17-16 18-6 48-7 71-7 15 1 50 3 63 12 5 4 6 8 6 11v64c0 12-16 16-28 18-13 3-31 5-50 5zm-65-24c4 3 25 9 65 9 39 0 61-6 64-9v-16c-4 1-9 3-14 3-13 3-31 5-50 5-20 0-38-2-51-5-4 0-9-2-14-3zm0-32c4 3 25 9 65 9 39 0 61-6 64-9v-16c-4 1-9 3-14 3-13 3-31 5-50 5-20 0-38-2-51-5-4 0-9-2-14-3zm1-31c6 3 27 8 64 8 36 0 57-5 63-8-5-3-21-7-50-9-28-1-57 2-71 6-3 1-5 2-6 3z"/></g></g></g></g></svg>