<?xml version="1.0" encoding="utf-8"?>
<!-- Generator: Adobe Illustrator 28.0.0, SVG Export Plug-In . SVG Version: 6.00 Build 0)  -->
<svg fill="white" version="1.1" id="Capa_1" xmlns="http://www.w3.org/2000/svg" xmlns:xlink="http://www.w3.org/1999/xlink" x="0px" y="0px"
	 viewBox="0 0 723.4 619.4" style="enable-background:new 0 0 723.4 619.4;" xml:space="preserve">
<style type="text/css">
	.st0{fill:none;stroke:#000000;}
</style>
<g>
	<path fill="white" style="color:white !important" class="st0" d="M277.7,312.7h-80.5c-4.7,0-9.1,2.4-11.7,6.4l-89,141.3c-5.8,9.2,0.8,21.1,11.7,21.1h80.5
		c4.7,0,9.1-2.4,11.7-6.4l89-141.3C295.1,324.6,288.6,312.7,277.7,312.7z"/>
	<path fill="white" class="st0" d="M664.1,134.1h-80.5c-4.7,0-9.1,2.4-11.7,6.4l-99,153.8c-5.8,9.2,0.8,21.1,11.7,21.1h80.5
		c4.7,0,9.1-2.4,11.7-6.4l99-153.8C681.6,146.1,675,134.1,664.1,134.1z"/>
	<path class="st0" d="M520.6,339.5H440c-4.7,0-9.1,2.4-11.7,6.4l-89,141.3c-5.8,9.2,0.8,21.1,11.7,21.1h80.5c4.7,0,9.1-2.4,11.7-6.4
		l89-141.3C538,351.5,531.4,339.5,520.6,339.5z"/>
	<path class="st0" d="M475,215.8h-80.5c-4.7,0-9.1,2.4-11.7,6.4l-99,153.8c-5.8,9.2,0.8,21.1,11.7,21.1H376c4.7,0,9.1-2.4,11.7-6.4
		l99-153.8C492.4,227.7,485.8,215.8,475,215.8z"/>
	<path class="st0" d="M337.4,424h-80.5c-4.7,0-9.1,2.4-11.7,6.4l-89,141.3c-5.8,9.2,0.8,21.1,11.7,21.1h80.5c4.7,0,9.1-2.4,11.7-6.4
		l89-141.3C354.8,435.9,348.2,424,337.4,424z"/>
	<path class="st0" d="M238.8,143.5h-80.5c-4.7,0-9.1,2.4-11.7,6.4l-99,153.8c-5.8,9.2,0.8,21.1,11.7,21.1h80.5
		c4.7,0,9.1-2.4,11.7-6.4l99-153.8C256.2,155.4,249.6,143.5,238.8,143.5z"/>
	<path class="st0" d="M583.4,26.6h-80.5c-4.7,0-9.1,2.4-11.7,6.4l-89,141.3c-5.8,9.2,0.8,21.1,11.7,21.1h80.5
		c4.7,0,9.1-2.4,11.7-6.4l89-141.3C600.8,38.5,594.2,26.6,583.4,26.6z"/>
	<path class="st0" d="M394.2,111h-80.5c-4.7,0-9.1,2.4-11.7,6.4l-99,153.8c-5.8,9.2,0.8,21.1,11.7,21.1h80.5c4.7,0,9.1-2.4,11.7-6.4
		l99-153.8C411.6,123,405.1,111,394.2,111z"/>
</g>
</svg>
